{
  "accessors": [
    {
      "bufferView": 2,
      "componentType": 5126,
      "count": 16849,
      "max": [
        12.756913185119629,
        18.411640167236328,
        1.0201072692871094
      ],
      "min": [
        -14.259382247924805,
        -19.42194938659668,
        -1.0219287872314453
      ],
      "type": "VEC3"
    },
    {
      "bufferView": 2,
      "byteOffset": 202188,
      "componentType": 5126,
      "count": 16849,
      "max": [
        0.9994930624961853,
        0.9998933672904968,
        0.9999997019767761
      ],
      "min": [
        -0.9969136714935303,
        -0.9992559552192688,
        -0.9986141920089722
      ],
      "type": "VEC3"
    },
    {
      "bufferView": 3,
      "componentType": 5126,
      "count": 16849,
      "max": [
        1.0,
        0.991253137588501,
        0.9999877214431763,
        1.0
      ],
      "min": [
        -0.9999998807907104,
        -0.9954760074615479,
        -0.9999961853027344,
        -1.0
      ],
      "type": "VEC4"
    },
    {
      "bufferView": 1,
      "componentType": 5126,
      "count": 16849,
      "max": [
        0.9997010231018066,
        0.9987791776657104
      ],
      "min": [
        0.000244140625,
        0.00026061071548610926
      ],
      "type": "VEC2"
    },
    {
      "bufferView": 0,
      "componentType": 5125,
      "count": 74907,
      "type": "SCALAR"
    }
  ],
  "asset": {
    "extras": {
      "author": "Exploring Europe and Beyond (https://sketchfab.com/ExploringEuropeAndBeyond)",
      "license": "SKETCHFAB Standard (https://sketchfab.com/licenses)",
      "source": "https://sketchfab.com/3d-models/low-poly-dirt-ground-88bd58f71a4f43688b61c42bdd8934c3",
      "title": "Low poly dirt ground"
    },
    "generator": "Sketchfab-16.45.0",
    "version": "2.0"
  },
  "bufferViews": [
    {
      "buffer": 0,
      "byteLength": 299628,
      "name": "floatBufferViews",
      "target": 34963
    },
    {
      "buffer": 0,
      "byteLength": 134792,
      "byteOffset": 299628,
      "byteStride": 8,
      "name": "floatBufferViews",
      "target": 34962
    },
    {
      "buffer": 0,
      "byteLength": 404376,
      "byteOffset": 434420,
      "byteStride": 12,
      "name": "floatBufferViews",
      "target": 34962
    },
    {
      "buffer": 0,
      "byteLength": 269584,
      "byteOffset": 838796,
      "byteStride": 16,
      "name": "floatBufferViews",
      "target": 34962
    }
  ],
  "buffers": [
    {
      "byteLength": 1108380,
      "uri": "scene.bin"
    }
  ],
  "extensionsUsed": [
    "KHR_materials_specular"
  ],
  "images": [
    {
      "uri": "textures/tex_u1_v1_baseColor.jpeg"
    },
    {
      "uri": "textures/tex_u1_v1_normal.png"
    }
  ],
  "materials": [
    {
      "doubleSided": true,
      "extensions": {
        "KHR_materials_specular": {
          "specularColorFactor": [
            1.0,
            1.0,
            1.0
          ],
          "specularFactor": 0.22400068266874718
        }
      },
      "name": "tex_u1_v1",
      "normalTexture": {
        "index": 1
      },
      "pbrMetallicRoughness": {
        "baseColorTexture": {
          "index": 0
        },
        "metallicFactor": 0.0
      }
    }
  ],
  "meshes": [
    {
      "name": "Object_0",
      "primitives": [
        {
          "attributes": {
            "NORMAL": 1,
            "POSITION": 0,
            "TANGENT": 2,
            "TEXCOORD_0": 3
          },
          "indices": 4,
          "material": 0,
          "mode": 4
        }
      ]
    }
  ],
  "nodes": [
    {
      "children": [
        1
      ],
      "matrix": [
        1.0,
        0.0,
        0.0,
        0.0,
        0.0,
        2.220446049250313e-16,
        -1.0,
        0.0,
        0.0,
        1.0,
        2.220446049250313e-16,
        0.0,
        0.0,
        0.0,
        0.0,
        1.0
      ],
      "name": "Sketchfab_model"
    },
    {
      "children": [
        2
      ],
      "name": "model.obj.cleaner.materialmerger.gles"
    },
    {
      "mesh": 0,
      "name": "Object_2"
    }
  ],
  "samplers": [
    {
      "magFilter": 9729,
      "minFilter": 9987,
      "wrapS": 10497,
      "wrapT": 10497
    }
  ],
  "scene": 0,
  "scenes": [
    {
      "name": "Sketchfab_Scene",
      "nodes": [
        0
      ]
    }
  ],
  "textures": [
    {
      "sampler": 0,
      "source": 0
    },
    {
      "sampler": 0,
      "source": 1
    }
  ]
}
